<?xml version="1.0" encoding="utf-8"?>
<!-- Generator: Adobe Illustrator 23.0.2, SVG Export Plug-In . SVG Version: 6.00 Build 0)  -->
<svg version="1.1" xmlns="http://www.w3.org/2000/svg" xmlns:xlink="http://www.w3.org/1999/xlink" x="0px" y="0px"
	 viewBox="0 0 88.5 74.6" style="enable-background:new 0 0 88.5 74.6;" xml:space="preserve">
<style type="text/css">
	.st0{fill:#B55A3A;}
	.st1{fill:#3093F7;}
	.st2{fill:#FFFFFF;}
	.st3{fill:none;stroke:#FFFFFF;stroke-width:9;stroke-linecap:round;stroke-linejoin:round;stroke-miterlimit:10;}
</style>
<g id="e60076dd-5554-4f7c-b868-57d8b497b3f0">
	<title>Exylir</title>
	<path class="st0" d="M56.2,73"/>
	<path class="st1" d="M80.4,29v5.2c0,1,0,2.1-0.2,3v8.6c0,0.1,0,0.3,0,0.3c-0.2,2.2-0.3,3.9-0.5,5.4s-0.5,2.9-1,4.4
		c-0.2,0-0.2,0.2-0.2,0.2c-0.7,2.2-1.6,4.4-2.6,6.3c-2.3,4.2-6.2,7.3-10.9,8.4c-2.9,0.8-5.8,1.5-8.9,1.8c-1.7,0.2-3.9,0.3-5.8,0.5
		c-2,0.2-4.1,0.2-6.2,0.2h-1.6c-5.5,0-11-0.5-16.4-1.6c-1-0.3-2-0.5-2.8-0.8c-4.7-1.1-8.6-4.4-10.9-8.6c-1.8-3.4-3.1-7-3.7-10.9
		c-0.4-4.4-0.6-9-0.6-13.5v-5.8c0.2-3.9,0.3-6.8,0.8-9.1c0.7-3.8,1.8-7.4,3.6-10.6c1.6-3.2,4.4-5.6,7.8-7.1C25,3.4,30,2.1,35.1,1.7
		c2.9-0.3,6.2-0.5,9.6-0.5c3.1,0,6.3,0.2,9.4,0.5c1.1,0,2.2,0.1,3.2,0.3C67.1,3.5,73.4,7,76,12.4c1.1,2.2,2.1,4.4,2.9,6.7
		c0.5,1.5,0.8,2.9,1,4.4C80.1,24.9,80.2,26.7,80.4,29z"/>
</g>
<g id="Calque_2">
	<g>
		<circle class="st2" cx="59.8" cy="23.2" r="8.9"/>
		<circle class="st2" cx="28.7" cy="23.2" r="8.9"/>
	</g>
	<circle class="st2" cx="44.3" cy="37.3" r="5.2"/>
	<path class="st3" d="M63.7,46.9c-2.7,8.1-10.4,14-19.4,14c-9.1,0-16.8-5.9-19.5-14.1"/>
</g>
</svg>
